<?xml version="1.0" encoding="utf-8"?>
<!-- Generator: Adobe Illustrator 16.0.0, SVG Export Plug-In . SVG Version: 6.00 Build 0)  -->
<!DOCTYPE svg PUBLIC "-//W3C//DTD SVG 1.1//EN" "http://www.w3.org/Graphics/SVG/1.1/DTD/svg11.dtd">
<svg version="1.1" id="レイヤー_1" xmlns="http://www.w3.org/2000/svg" xmlns:xlink="http://www.w3.org/1999/xlink" x="0px"
	 y="0px" width="500px" height="233.333px" viewBox="0 0 500 233.333" enable-background="new 0 0 500 233.333"
	 xml:space="preserve">
<circle fill="#F9FAF7" cx="50.016" cy="-81.062" r="35.715"/>
<circle fill="#E6EFE1" cx="150.015" cy="-81.062" r="35.714"/>
<circle fill="#76A379" cx="250.016" cy="-81.062" r="35.714"/>
<circle fill="#3C6B52" cx="350.016" cy="-81.062" r="35.714"/>
<circle fill="#39393A" cx="450.016" cy="-81.062" r="35.714"/>
<text transform="matrix(1 0 0 1 28.1272 -18.8164)" fill="#231815" font-family="'DFMaruGothic-Bd-WIN-RKSJ-H'" font-size="12">#FAFBF7</text>
<text transform="matrix(1 0 0 1 128.1272 -18.8164)" fill="#231815" font-family="'DFMaruGothic-Bd-WIN-RKSJ-H'" font-size="12">#EAF3E6</text>
<text transform="matrix(1 0 0 1 228.1272 -18.8164)" fill="#231815" font-family="'DFMaruGothic-Bd-WIN-RKSJ-H'" font-size="12">#7BAE7F</text>
<text transform="matrix(1 0 0 1 328.1272 -18.8164)" fill="#231815" font-family="'DFMaruGothic-Bd-WIN-RKSJ-H'" font-size="12">#3F6F55</text>
<text transform="matrix(1 0 0 1 428.1272 -18.8164)" fill="#231815" font-family="'DFMaruGothic-Bd-WIN-RKSJ-H'" font-size="12">#3A3A3A</text>
<g>
	<circle opacity="0.8" fill="#E6EFE1" enable-background="new    " cx="46.528" cy="51.381" r="44.381"/>
	<circle opacity="0.8" fill="#76A379" enable-background="new    " cx="66.345" cy="99.521" r="30.913"/>
	<circle opacity="0.8" fill="#E6EFE1" enable-background="new    " cx="428.486" cy="142.018" r="44.381"/>
	<circle opacity="0.8" fill="#76A379" enable-background="new    " cx="398.947" cy="185.291" r="30.913"/>
	<circle fill="#39393A" cx="359.947" cy="179.291" r="12.913"/>
	<g>
		<path fill="none" stroke="#FFFFFF" stroke-width="5" d="M111.302,96.155c12.221,0.979,26.467,2.821,42.738,5.521
			c12.266,2.001,22.938,3.363,32.01,4.091c3.904,0.313,8.65,0.439,14.236,0.381c1.135,0.091,1.595,1.46,1.383,4.105
			c-0.293,3.656-2.189,7.498-5.682,11.529c-2.396,2.979-4.537,4.391-6.428,4.239c-3.656-0.293-8.152-1.921-13.495-4.888
			c-5.604-2.857-11.69-5.25-18.257-7.172c-0.071,0.883-0.42,2.06-1.043,3.532c-0.682,3.748-1.144,7.137-1.386,10.159
			c-0.532,11.371-1.041,20.081-1.526,26.13c-0.637,7.938-4.377,12.649-11.216,14.129c-4.279,1.178-8.247,1.619-11.9,1.326
			c-3.023-0.242-5.47-1.391-7.333-3.441c-2.35-2.344-3.396-5.092-3.144-8.242c0.121-1.512,1.142-2.381,3.063-2.607
			c7.59,0.229,12.484,0.053,14.688-0.531c2.707-0.545,4.435-1.547,5.188-3.008c0.867-1.324,1.463-4.004,1.786-8.037
			c0.506-6.301,0.622-12.506,0.353-18.613c0.19-5.563,0.349-9.104,0.471-10.614c0.102-1.259,0.312-2.321,0.635-3.184
			c-10.978-2.274-23.208-3.954-36.688-5.036c-13.358-1.071-26.512-1.492-39.466-1.264c-7.769,0.392-19.653,3.116-35.657,8.172
			c-4.536-0.365-6.662-2.31-6.379-5.839c0.182-2.268,1.35-4.201,3.509-5.806c2.47-2.337,5.658-3.351,9.564-3.037
			C72.099,95.547,95.425,94.881,111.302,96.155z M121.684,26.034c4.537,0.364,6.618,2.878,6.243,7.539
			c-0.897,1.705-1.605,3.423-2.126,5.156c21.778,2.003,40.68,4.28,56.71,6.833l7.682-0.905c3.402,0.272,5.008,1.608,4.815,4
			c-0.081,1.01-0.488,2.119-1.218,3.327c-2.225,4.006-4.147,10.575-5.767,19.701c-0.253,3.151-1.891,4.604-4.916,4.362
			c-3.15-0.252-4.599-1.954-4.346-5.104c0.415-5.166,1.111-9.928,2.097-14.289c0.031-0.378-0.991-1.093-3.062-2.148
			c-15.454-3.395-33.196-5.897-53.231-7.505s-38.74-2.41-56.112-2.41c-5.189-0.16-8.225,0.547-9.111,2.123l-0.454,0.915
			c-0.677,8.443-1.838,13.423-3.48,14.939c-0.805,2.092-2.338,3.046-4.605,2.864c-2.144-0.172-3.147-1.076-3.016-2.715
			c0.839-10.457,0.622-19.605-0.652-27.444c0.243-3.024,2.127-4.395,5.656-4.112c2.393,0.191,4.189,0.717,5.391,1.574
			c1.943,1.044,3.608,1.621,4.997,1.732c13.017,0.54,30.113,1.656,51.282,3.354c0.377,0.03,0.69,0.055,0.944,0.076
			c-0.235-1.794-0.677-3.413-1.321-4.861C114.489,27.994,117.021,25.66,121.684,26.034z M74.456,112.031
			c1.512,0.12,3.138,0.379,4.884,0.771c1.616,0.384,4.001,0.7,7.151,0.953l12.097,0.971c2.771,0.223,5.963,0.733,9.579,1.531
			c1.763,0.14,3.861,0.056,6.298-0.257c3.525,0.283,5.145,2.253,4.852,5.906l-0.454,0.916c-0.837,0.947-1.499,2.859-1.981,5.736
			c-0.672,3.626-1.168,7.451-1.493,11.484c-0.191,2.394-0.193,5.564-0.001,9.511c-0.293,3.655-1.89,5.364-4.788,5.133
			c-7.605-1.624-14.432-2.681-20.479-3.165c-7.059-0.566-11.609-0.742-13.654-0.523c-1.66,0.121-3.652,0.467-5.981,1.039
			c-3.15-0.252-4.588-2.078-4.315-5.48c1.62-5.957,2.601-11.077,2.944-15.362c0.313-3.903,0.12-8.612-0.578-14.123
			C68.829,113.418,70.8,111.738,74.456,112.031z M84.358,54.997l30.053,2.412c0.03-0.379,0.065-0.819,0.106-1.324
			c0.293-3.653,2.014-5.355,5.165-5.102c3.526,0.283,5.126,2.503,4.792,6.661c-0.136,0.117-0.214,0.301-0.233,0.552l37.801,3.033
			c1.502,0.248,2.239,1.321,2.214,3.222c-0.151,1.89-1.039,3.467-2.662,4.732c-1.613,1.14-3.681,1.607-6.2,1.404
			c-2.017-0.162-6.527-0.839-13.533-2.037c-6.404-0.767-13.321-1.511-20.744-2.235c-0.784,1.84-1.749,3.602-2.897,5.284
			c-3.05,4.829-6.699,8.403-10.942,10.726c-5.472,3.365-11.426,5.678-17.866,6.936c-2.455,0.564-4.313,0.796-5.572,0.695
			c-2.646-0.212-5.104-1.994-7.371-5.347c-1.206-2.38-1.741-4.387-1.609-6.027c0.052-0.629,1.528-0.89,4.439-0.785
			c5.804,0.341,11.304-0.234,16.497-1.72c5.495-2.095,10.187-5.27,14.08-9.523c0.28-0.358,0.558-0.65,0.832-0.884
			c-10.723-0.733-18.71-0.74-23.968-0.021c-3.757,0.968-6.199,1.405-7.333,1.314c-3.509-0.535-5.385-2.459-5.624-5.777
			c0.275-1.88,1.489-3.558,3.638-5.035C79.145,55.149,81.458,54.763,84.358,54.997z M90.727,143.963
			c3.78,0.302,7.854,0.885,12.225,1.74c1.89,0.15,2.917-0.779,3.077-2.797l1.335-16.634c0.092-1.134-0.307-1.735-1.187-1.808
			c-5.252-0.926-12.857-1.793-22.81-2.59c-1.891-0.151-2.922,0.844-3.094,2.984c-0.424,5.293-1.334,10.293-2.726,14.999
			c-0.202,2.522,0.893,3.876,3.289,4.069C83.775,143.661,87.07,143.668,90.727,143.963z M133.028,74.31
			c0.63,0.051,1.56,0.316,2.79,0.795c5.25,4.101,12.164,7.253,20.736,9.462c1.859,0.53,2.729,1.551,2.608,3.063
			c-0.184,2.268-1.155,4.093-2.912,5.473c-1.741,1.13-3.933,1.587-6.579,1.375c-3.78-0.303-8.005-2.988-12.669-8.055
			c-4.466-4.416-6.622-7.57-6.471-9.46C130.684,75.073,131.517,74.188,133.028,74.31z"/>
		<path fill="#39393A" d="M111.302,96.155c12.221,0.979,26.467,2.821,42.738,5.521c12.266,2.001,22.938,3.363,32.01,4.091
			c3.904,0.313,8.65,0.439,14.236,0.381c1.135,0.091,1.595,1.46,1.383,4.105c-0.293,3.656-2.189,7.498-5.682,11.529
			c-2.396,2.979-4.537,4.391-6.428,4.239c-3.656-0.293-8.152-1.921-13.495-4.888c-5.604-2.857-11.69-5.25-18.257-7.172
			c-0.071,0.883-0.42,2.06-1.043,3.532c-0.682,3.748-1.144,7.137-1.386,10.159c-0.532,11.371-1.041,20.081-1.526,26.13
			c-0.637,7.938-4.377,12.649-11.216,14.129c-4.279,1.178-8.247,1.619-11.9,1.326c-3.023-0.242-5.47-1.391-7.333-3.441
			c-2.35-2.344-3.396-5.092-3.144-8.242c0.121-1.512,1.142-2.381,3.063-2.607c7.59,0.229,12.484,0.053,14.688-0.531
			c2.707-0.545,4.435-1.547,5.188-3.008c0.867-1.324,1.463-4.004,1.786-8.037c0.506-6.301,0.622-12.506,0.353-18.613
			c0.19-5.563,0.349-9.104,0.471-10.614c0.102-1.259,0.312-2.321,0.635-3.184c-10.978-2.274-23.208-3.954-36.688-5.036
			c-13.358-1.071-26.512-1.492-39.466-1.264c-7.769,0.392-19.653,3.116-35.657,8.172c-4.536-0.365-6.662-2.31-6.379-5.839
			c0.182-2.268,1.35-4.201,3.509-5.806c2.47-2.337,5.658-3.351,9.564-3.037C72.099,95.547,95.425,94.881,111.302,96.155z
			 M121.684,26.034c4.537,0.364,6.618,2.878,6.243,7.539c-0.897,1.705-1.605,3.423-2.126,5.156c21.778,2.003,40.68,4.28,56.71,6.833
			l7.682-0.905c3.402,0.272,5.008,1.608,4.815,4c-0.081,1.01-0.488,2.119-1.218,3.327c-2.225,4.006-4.147,10.575-5.767,19.701
			c-0.253,3.151-1.891,4.604-4.916,4.362c-3.15-0.252-4.599-1.954-4.346-5.104c0.415-5.166,1.111-9.928,2.097-14.289
			c0.031-0.378-0.991-1.093-3.062-2.148c-15.454-3.395-33.196-5.897-53.231-7.505s-38.74-2.41-56.112-2.41
			c-5.189-0.16-8.225,0.547-9.111,2.123l-0.454,0.915c-0.677,8.443-1.838,13.423-3.48,14.939c-0.805,2.092-2.338,3.046-4.605,2.864
			c-2.144-0.172-3.147-1.076-3.016-2.715c0.839-10.457,0.622-19.605-0.652-27.444c0.243-3.024,2.127-4.395,5.656-4.112
			c2.393,0.191,4.189,0.717,5.391,1.574c1.943,1.044,3.608,1.621,4.997,1.732c13.017,0.54,30.113,1.656,51.282,3.354
			c0.377,0.03,0.69,0.055,0.944,0.076c-0.235-1.794-0.677-3.413-1.321-4.861C114.489,27.994,117.021,25.66,121.684,26.034z
			 M74.456,112.031c1.512,0.12,3.138,0.379,4.884,0.771c1.616,0.384,4.001,0.7,7.151,0.953l12.097,0.971
			c2.771,0.223,5.963,0.733,9.579,1.531c1.763,0.14,3.861,0.056,6.298-0.257c3.525,0.283,5.145,2.253,4.852,5.906l-0.454,0.916
			c-0.837,0.947-1.499,2.859-1.981,5.736c-0.672,3.626-1.168,7.451-1.493,11.484c-0.191,2.394-0.193,5.564-0.001,9.511
			c-0.293,3.655-1.89,5.364-4.788,5.133c-7.605-1.624-14.432-2.681-20.479-3.165c-7.059-0.566-11.609-0.742-13.654-0.523
			c-1.66,0.121-3.652,0.467-5.981,1.039c-3.15-0.252-4.588-2.078-4.315-5.48c1.62-5.957,2.601-11.077,2.944-15.362
			c0.313-3.903,0.12-8.612-0.578-14.123C68.829,113.418,70.8,111.738,74.456,112.031z M84.358,54.997l30.053,2.412
			c0.03-0.379,0.065-0.819,0.106-1.324c0.293-3.653,2.014-5.355,5.165-5.102c3.526,0.283,5.126,2.503,4.792,6.661
			c-0.136,0.117-0.214,0.301-0.233,0.552l37.801,3.033c1.502,0.248,2.239,1.321,2.214,3.222c-0.151,1.89-1.039,3.467-2.662,4.732
			c-1.613,1.14-3.681,1.607-6.2,1.404c-2.017-0.162-6.527-0.839-13.533-2.037c-6.404-0.767-13.321-1.511-20.744-2.235
			c-0.784,1.84-1.749,3.602-2.897,5.284c-3.05,4.829-6.699,8.403-10.942,10.726c-5.472,3.365-11.426,5.678-17.866,6.936
			c-2.455,0.564-4.313,0.796-5.572,0.695c-2.646-0.212-5.104-1.994-7.371-5.347c-1.206-2.38-1.741-4.387-1.609-6.027
			c0.052-0.629,1.528-0.89,4.439-0.785c5.804,0.341,11.304-0.234,16.497-1.72c5.495-2.095,10.187-5.27,14.08-9.523
			c0.28-0.358,0.558-0.65,0.832-0.884c-10.723-0.733-18.71-0.74-23.968-0.021c-3.757,0.968-6.199,1.405-7.333,1.314
			c-3.509-0.535-5.385-2.459-5.624-5.777c0.275-1.88,1.489-3.558,3.638-5.035C79.145,55.149,81.458,54.763,84.358,54.997z
			 M90.727,143.963c3.78,0.302,7.854,0.885,12.225,1.74c1.89,0.15,2.917-0.779,3.077-2.797l1.335-16.634
			c0.092-1.134-0.307-1.735-1.187-1.808c-5.252-0.926-12.857-1.793-22.81-2.59c-1.891-0.151-2.922,0.844-3.094,2.984
			c-0.424,5.293-1.334,10.293-2.726,14.999c-0.202,2.522,0.893,3.876,3.289,4.069C83.775,143.661,87.07,143.668,90.727,143.963z
			 M133.028,74.31c0.63,0.051,1.56,0.316,2.79,0.795c5.25,4.101,12.164,7.253,20.736,9.462c1.859,0.53,2.729,1.551,2.608,3.063
			c-0.184,2.268-1.155,4.093-2.912,5.473c-1.741,1.13-3.933,1.587-6.579,1.375c-3.78-0.303-8.005-2.988-12.669-8.055
			c-4.466-4.416-6.622-7.57-6.471-9.46C130.684,75.073,131.517,74.188,133.028,74.31z"/>
	</g>
	<g>
		<path fill="none" stroke="#FFFFFF" stroke-width="5" d="M446.475,153.392c0,3.248-3.35,8.909-10.043,16.981
			c-6.991,8.469-12.503,12.699-16.54,12.699c-3.741,0-7.398-2.68-11.96-7.088c-31.554-30.488-38.306-31.929-40.734-48.67
			c-1.696-11.69,0.631-10.981,1.981-12.602c1.549-1.858,3.673-1.619,5.938-1.619c3.249,0,2.704,0.773,3.69,3.239
			c1.08,2.701,4.718,12.078,6.932,16.744c2.521,5.309,7.885,9.104,10.44,12.24c3.96,4.859,10.813,12.26,14.262,17.671
			c3.15,4.925,6.251,7.386,9.304,7.386c2.954,0,7.681-3.149,14.178-9.453c6.396-6.496,9.94-9.746,10.632-9.746
			C445.83,151.176,446.475,151.917,446.475,153.392z M498.159,148.247c-0.379,2.654-2.528,5.815-6.446,9.48
			c-3.667,3.413-6.892,5.119-9.67,5.119c-3.92,0-10.178-6.571-18.771-19.721c-8.471-13.272-12.705-22.246-12.705-26.925
			c0-1.896,0.883-2.844,2.655-2.844c1.39,0,4.105,2.654,8.153,7.964c4.296,5.31,9.416,10.306,15.358,14.979
			c5.813,4.806,11.061,7.773,15.738,8.912c1.517,0.379,2.589,0.633,3.223,0.758C497.085,146.856,497.905,147.616,498.159,148.247z"
			/>
		<path fill="#39393A" d="M446.475,153.392c0,3.248-3.35,8.909-10.043,16.981c-6.991,8.469-12.503,12.699-16.54,12.699
			c-3.741,0-7.398-2.68-11.96-7.088c-31.554-30.488-38.306-31.929-40.734-48.67c-1.696-11.69,0.631-10.981,1.981-12.602
			c1.549-1.858,3.673-1.619,5.938-1.619c3.249,0,2.704,0.773,3.69,3.239c1.08,2.701,4.718,12.078,6.932,16.744
			c2.521,5.309,7.885,9.104,10.44,12.24c3.96,4.859,10.813,12.26,14.262,17.671c3.15,4.925,6.251,7.386,9.304,7.386
			c2.954,0,7.681-3.149,14.178-9.453c6.396-6.496,9.94-9.746,10.632-9.746C445.83,151.176,446.475,151.917,446.475,153.392z
			 M498.159,148.247c-0.379,2.654-2.528,5.815-6.446,9.48c-3.667,3.413-6.892,5.119-9.67,5.119c-3.92,0-10.178-6.571-18.771-19.721
			c-8.471-13.272-12.705-22.246-12.705-26.925c0-1.896,0.883-2.844,2.655-2.844c1.39,0,4.105,2.654,8.153,7.964
			c4.296,5.31,9.416,10.306,15.358,14.979c5.813,4.806,11.061,7.773,15.738,8.912c1.517,0.379,2.589,0.633,3.223,0.758
			C497.085,146.856,497.905,147.616,498.159,148.247z"/>
	</g>
	<g>
		<path fill="none" stroke="#FFFFFF" stroke-width="5" d="M265.991,84.318c2.146,0,3.223,0.824,3.223,2.465
			c0,2.53-0.823,3.982-2.465,4.361l-31.855,11.566c-4.55,0-6.826-2.021-6.826-6.068c0-5.055,1.77-7.837,5.311-8.343L265.991,84.318z
			 M269.214,130.774c2.021,0,3.034,0.948,3.034,2.846c0,1.518-0.506,3.098-1.519,4.739c-12.893,14.665-20.226,21.996-21.994,21.996
			c-5.563,0-8.344-1.519-8.344-4.552c0-4.297,0.949-7.077,2.844-8.344C243.236,146.323,251.895,140.762,269.214,130.774z
			 M249.305,32.174c0.759,0,2.338,0.507,4.74,1.518c5.562,3.667,12.136,7.839,19.721,12.515c0.883,0.506,1.327,1.137,1.327,1.896
			c0,1.896-1.203,2.844-3.604,2.844c-0.635,0-1.835-0.189-3.604-0.569c-10.997-2.4-17.889-3.917-20.668-4.551
			c-3.667-2.4-5.499-5.244-5.499-8.533C241.72,33.881,244.247,32.174,249.305,32.174z M367.056,32.174
			c2.528,0,3.793,1.203,3.793,3.603c0,2.53-1.014,4.109-3.034,4.74c-12.515,2.53-23.388,4.616-32.614,6.258c0,0.127,0,0.316,0,0.568
			c-0.379,0-0.695,0.634-0.947,1.896c-1.896,4.931-4.36,10.367-7.396,16.307h61.246c2.021,0,3.096,0.696,3.223,2.086
			c0,2.53-0.822,4.678-2.464,6.447c-1.771,1.771-3.98,2.654-6.638,2.654c-2.529,0-8.659-0.503-18.393-1.517
			c-2.782-0.125-5.754-0.252-8.911-0.379c17.568,13.907,28.565,21.681,32.992,23.323c2.906,1.013,6.259,1.707,10.05,2.085
			c2.653,0,3.981,1.075,3.981,3.224c0,2.402-2.022,4.929-6.066,7.584c-3.793,2.529-7.839,3.792-12.137,3.792
			c-3.033,0-5.814-1.011-8.344-3.033c-6.322-8.595-13.462-17.255-21.426-25.978c-3.413-3.413-6.447-6.003-9.103-7.774
			c-1.393-0.883-2.086-2.021-2.086-3.413c-3.792-0.125-7.585-0.19-11.377-0.19c-3.289,0-6.512,0.065-9.67,0.19
			c-1.138,1.896-2.275,3.919-3.414,6.067c-8.091,10.619-16.624,18.709-25.598,24.271c-5.942,4.047-10.745,6.067-14.411,6.067
			c-2.274,0-4.359-0.883-6.257-2.655c-3.034-2.527-4.551-5.244-4.551-8.153c0-1.896,2.021-3.096,6.067-3.603
			c11.25-1.769,21.615-7.078,31.098-15.928c1.769-1.769,3.537-3.727,5.309-5.878c-7.585,0.254-13.65,0.696-18.203,1.327
			c-4.679,0.886-7.712,1.327-9.102,1.327c-3.541-0.125-5.563-1.831-6.067-5.12c0.252-1.896,1.327-3.665,3.225-5.309
			c1.642-1.01,3.917-1.517,6.825-1.517h29.771c3.158-5.309,5.878-11.06,8.152-17.255c-1.265,0.255-2.465,0.444-3.603,0.569
			c-8.219,0.886-13.59,1.328-16.117,1.328c-3.289,0-6.194-1.073-8.723-3.224c-1.771-1.896-2.655-3.792-2.655-5.688
			c0-1.39,1.012-2.148,3.035-2.275c16.307-0.252,29.704-1.138,40.198-2.655c10.618-1.01,19.593-2.337,26.925-3.982
			C364.905,32.239,366.043,32.174,367.056,32.174z M284.193,128.5c3.414,0.506,5.941,0.758,7.585,0.758
			c3.917,0,8.723-1.579,14.411-4.739c1.517,0,2.275,0.823,2.275,2.464c0,1.896-2.023,5.436-6.068,10.618
			c-3.919,5.563-7.46,8.343-10.618,8.343c-2.528,0-4.679-1.326-6.446-3.98c-2.274-2.907-3.412-6.383-3.412-10.43
			C281.919,129.51,282.677,128.5,284.193,128.5z M328.375,89.059c4.044,0,6.065,2.53,6.065,7.585
			c-0.506,7.333-0.758,14.032-0.758,20.098l0.758,37.545c0,7.963-2.273,11.945-6.826,11.945c-3.54,0-5.309-3.982-5.309-11.945
			c0.379-16.054,0.569-28.566,0.569-37.545c0-6.066-0.19-12.766-0.569-20.098C322.307,91.589,324.326,89.059,328.375,89.059z
			 M350.881,121.709c0.126,0.002,0.378,0.131,0.756,0.388c4.762,4.217,8.59,7.034,11.485,8.45c2.142,1.033,4.787,1.627,7.947,1.783
			c1.14,0.01,1.699,0.838,1.685,2.48c-0.019,1.895-1.237,3.717-3.654,5.464c-4.453,2.868-7.815,4.287-10.09,4.267
			c-0.759-0.008-1.389-0.519-1.881-1.533c-1.25-1.654-3.913-7.307-7.996-16.953c-0.371-0.887-0.555-1.646-0.549-2.28
			C348.724,122.385,349.487,121.698,350.881,121.709z"/>
		<g>
			<path fill="#39393A" d="M265.991,84.318c2.146,0,3.223,0.824,3.223,2.465c0,2.53-0.823,3.982-2.465,4.361l-31.855,11.566
				c-4.55,0-6.826-2.021-6.826-6.068c0-5.055,1.77-7.837,5.311-8.343L265.991,84.318z M269.214,130.774
				c2.021,0,3.034,0.948,3.034,2.846c0,1.518-0.506,3.098-1.519,4.739c-12.893,14.665-20.226,21.996-21.994,21.996
				c-5.563,0-8.344-1.519-8.344-4.552c0-4.297,0.949-7.077,2.844-8.344C243.236,146.323,251.895,140.762,269.214,130.774z
				 M249.305,32.174c0.759,0,2.338,0.507,4.74,1.518c5.562,3.667,12.136,7.839,19.721,12.515c0.883,0.506,1.327,1.137,1.327,1.896
				c0,1.896-1.203,2.844-3.604,2.844c-0.635,0-1.835-0.189-3.604-0.569c-10.997-2.4-17.889-3.917-20.668-4.551
				c-3.667-2.4-5.499-5.244-5.499-8.533C241.72,33.881,244.247,32.174,249.305,32.174z M367.056,32.174
				c2.528,0,3.793,1.203,3.793,3.603c0,2.53-1.014,4.109-3.034,4.74c-12.515,2.53-23.388,4.616-32.614,6.258
				c0,0.127,0,0.316,0,0.568c-0.379,0-0.695,0.634-0.947,1.896c-1.896,4.931-4.36,10.367-7.396,16.307h61.246
				c2.021,0,3.096,0.696,3.223,2.086c0,2.53-0.822,4.678-2.464,6.447c-1.771,1.771-3.98,2.654-6.638,2.654
				c-2.529,0-8.659-0.503-18.393-1.517c-2.782-0.125-5.754-0.252-8.911-0.379c17.568,13.907,28.565,21.681,32.992,23.323
				c2.906,1.013,6.259,1.707,10.05,2.085c2.653,0,3.981,1.075,3.981,3.224c0,2.402-2.022,4.929-6.066,7.584
				c-3.793,2.529-7.839,3.792-12.137,3.792c-3.033,0-5.814-1.011-8.344-3.033c-6.322-8.595-13.462-17.255-21.426-25.978
				c-3.413-3.413-6.447-6.003-9.103-7.774c-1.393-0.883-2.086-2.021-2.086-3.413c-3.792-0.125-7.585-0.19-11.377-0.19
				c-3.289,0-6.512,0.065-9.67,0.19c-1.138,1.896-2.275,3.919-3.414,6.067c-8.091,10.619-16.624,18.709-25.598,24.271
				c-5.942,4.047-10.745,6.067-14.411,6.067c-2.274,0-4.359-0.883-6.257-2.655c-3.034-2.527-4.551-5.244-4.551-8.153
				c0-1.896,2.021-3.096,6.067-3.603c11.25-1.769,21.615-7.078,31.098-15.928c1.769-1.769,3.537-3.727,5.309-5.878
				c-7.585,0.254-13.65,0.696-18.203,1.327c-4.679,0.886-7.712,1.327-9.102,1.327c-3.541-0.125-5.563-1.831-6.067-5.12
				c0.252-1.896,1.327-3.665,3.225-5.309c1.642-1.01,3.917-1.517,6.825-1.517h29.771c3.158-5.309,5.878-11.06,8.152-17.255
				c-1.265,0.255-2.465,0.444-3.603,0.569c-8.219,0.886-13.59,1.328-16.117,1.328c-3.289,0-6.194-1.073-8.723-3.224
				c-1.771-1.896-2.655-3.792-2.655-5.688c0-1.39,1.012-2.148,3.035-2.275c16.307-0.252,29.704-1.138,40.198-2.655
				c10.618-1.01,19.593-2.337,26.925-3.982C364.905,32.239,366.043,32.174,367.056,32.174z M284.193,128.5
				c3.414,0.506,5.941,0.758,7.585,0.758c3.917,0,8.723-1.579,14.411-4.739c1.517,0,2.275,0.823,2.275,2.464
				c0,1.896-2.023,5.436-6.068,10.618c-3.919,5.563-7.46,8.343-10.618,8.343c-2.528,0-4.679-1.326-6.446-3.98
				c-2.274-2.907-3.412-6.383-3.412-10.43C281.919,129.51,282.677,128.5,284.193,128.5z M328.375,89.059
				c4.044,0,6.065,2.53,6.065,7.585c-0.506,7.333-0.758,14.032-0.758,20.098l0.758,37.545c0,7.963-2.273,11.945-6.826,11.945
				c-3.54,0-5.309-3.982-5.309-11.945c0.379-16.054,0.569-28.566,0.569-37.545c0-6.066-0.19-12.766-0.569-20.098
				C322.307,91.589,324.326,89.059,328.375,89.059z M350.881,121.709c0.126,0.002,0.378,0.131,0.756,0.388
				c4.762,4.217,8.59,7.034,11.485,8.45c2.142,1.033,4.787,1.627,7.947,1.783c1.14,0.01,1.699,0.838,1.685,2.48
				c-0.019,1.895-1.237,3.717-3.654,5.464c-4.453,2.868-7.815,4.287-10.09,4.267c-0.759-0.008-1.389-0.519-1.881-1.533
				c-1.25-1.654-3.913-7.307-7.996-16.953c-0.371-0.887-0.555-1.646-0.549-2.28C348.724,122.385,349.487,121.698,350.881,121.709z"
				/>
		</g>
	</g>
	<g>
		<path fill="none" stroke="#FFFFFF" stroke-width="5" d="M248.573,144.852c2.828,11.223,2.428,23.316-1.211,36.297
			c-3.367,13.037-9.263,23.813-17.669,32.348c-8.191,8.355-15.424,13.316-21.664,14.89c-2.824,0.712-6.513,0.034-11.078-2.022
			c-4.432-2.095-7.019-4.582-7.748-7.48c-0.333-1.323,2.227-2.797,7.681-4.426c14.319-4.762,25.436-13.148,33.368-25.154
			c9.002-13.432,11.361-28.648,7.078-45.656c-5.925-23.521-14.778-33.805-26.547-30.841c-5.394,1.357-10.072,5.55-14.038,12.573
			c-2.708,5.313-4.832,11.365-6.382,18.16c-2.069,9.896-1.975,20.838,0.264,32.844c0.943,5.279-0.192,8.324-3.38,9.127
			c-6.98,1.759-13.529-9.485-19.638-33.733c-2.187-8.685-3.628-17.245-4.304-25.659c-1.059-12.951,0.682-20.004,5.229-21.151
			c2.932-0.738,4.976,1.125,6.099,5.586c0.03,0.119,0.129,4.147,0.292,12.061c-0.08,9.506,1.605,21.596,5.028,36.26
			c1.719-13.903,4.173-24.601,7.366-32.076c5.273-11.717,13.107-18.884,23.53-21.51c9.308-2.343,17.781,1.492,25.379,11.499
			C241.662,124.395,245.779,133.76,248.573,144.852z"/>
		<path fill="#39393A" d="M248.573,144.852c2.828,11.223,2.428,23.316-1.211,36.297c-3.367,13.037-9.263,23.813-17.669,32.348
			c-8.191,8.355-15.424,13.316-21.664,14.89c-2.824,0.712-6.513,0.034-11.078-2.022c-4.432-2.095-7.019-4.582-7.748-7.48
			c-0.333-1.323,2.227-2.797,7.681-4.426c14.319-4.762,25.436-13.148,33.368-25.154c9.002-13.432,11.361-28.648,7.078-45.656
			c-5.925-23.521-14.778-33.805-26.547-30.841c-5.394,1.357-10.072,5.55-14.038,12.573c-2.708,5.313-4.832,11.365-6.382,18.16
			c-2.069,9.896-1.975,20.838,0.264,32.844c0.943,5.279-0.192,8.324-3.38,9.127c-6.98,1.759-13.529-9.485-19.638-33.733
			c-2.187-8.685-3.628-17.245-4.304-25.659c-1.059-12.951,0.682-20.004,5.229-21.151c2.932-0.738,4.976,1.125,6.099,5.586
			c0.03,0.119,0.129,4.147,0.292,12.061c-0.08,9.506,1.605,21.596,5.028,36.26c1.719-13.903,4.173-24.601,7.366-32.076
			c5.273-11.717,13.107-18.884,23.53-21.51c9.308-2.343,17.781,1.492,25.379,11.499C241.662,124.395,245.779,133.76,248.573,144.852
			z"/>
	</g>
	<g>
		<g>
			<path fill="#39393A" d="M22.041,151.071c0.774,0,1.313,0.202,1.617,0.607l13.038,0.05c0.067-1.246,0.102-2.56,0.102-3.94v-2.225
				c0-0.775,0.42-1.163,1.263-1.163c1.213,0,1.819,0.455,1.819,1.365c-0.202,1.718-0.388,3.724-0.556,6.015l12.077,0.051
				c0.472,0,1.28-0.187,2.426-0.558c1.347,0,2.021,0.455,2.021,1.364c-0.675,3.27-1.011,7.277-1.011,12.027
				c0,3.233,0.202,7.852,0.605,13.848c0,1.348-0.605,2.021-1.818,2.021c-0.473,0-0.859-0.254-1.162-0.759
				c-0.202-0.673-0.303-1.549-0.303-2.628c0-9.602,0.15-17.098,0.455-22.486c0-0.406-0.474-0.607-1.415-0.607
				c-4.145,0-8.137,0.02-11.978,0.051c-0.202,2.393-0.573,4.531-1.111,6.418c-0.067,0.169-0.135,0.337-0.201,0.506
				c0.707,0.338,2.476,1.465,5.306,3.385c3.301,2.394,4.953,4.063,4.953,5.004c0,0.844-0.473,1.264-1.415,1.264
				c-0.303,0-0.775-0.235-1.415-0.707c-3.234-2.762-5.66-4.479-7.277-5.155c-0.605-0.202-1.062-0.42-1.364-0.655
				c-0.641,1.381-1.364,2.543-2.173,3.485c-1.818,2.427-3.471,3.64-4.953,3.64c-0.605,0-1.161-0.254-1.667-0.759
				c-0.775-0.774-1.161-1.532-1.161-2.274c0-0.57,0.284-0.91,0.858-1.01c1.616-0.404,2.947-1.043,3.992-1.92
				c1.684-1.045,3.065-3.42,4.144-7.127c0.304-1.279,0.557-2.645,0.759-4.093c-4.38,0.034-8.524,0.084-12.433,0.151
				c-0.035,3.604-0.068,6.285-0.102,8.035c0,6.738-0.726,11.287-2.173,13.646c-1.483,2.694-2.949,4.042-4.396,4.042
				c-0.877,0-1.769-0.506-2.678-1.516c-0.473-0.606-0.708-1.18-0.708-1.719c0-0.438,0.253-0.691,0.758-0.759
				c2.054-0.235,3.706-1.616,4.953-4.144c0.91-1.752,1.364-5.307,1.364-10.664c0-2.694-0.202-5.541-0.606-8.54
				C20.475,151.592,20.997,151.071,22.041,151.071z"/>
			<path fill="#39393A" d="M31.39,186c0.506,0,0.758,0.252,0.758,0.758c0,0.539-0.186,0.895-0.556,1.062
				c-2.156,0.675-4.111,1.247-5.862,1.72c0.102,0.303,0.152,0.674,0.152,1.11c-0.069,1.989-0.119,3.876-0.152,5.661h5.458
				c0.37,0.033,0.572,0.234,0.607,0.605c0,0.504-0.187,0.959-0.557,1.363c-0.473,0.438-1.028,0.657-1.668,0.657
				c-0.337,0-1.11-0.052-2.323-0.151c-0.54-0.031-1.063-0.051-1.567-0.051c0,0.337,0,0.674,0,1.01l0.051,3.234
				c0.067,0,0.118,0,0.152,0c0.168,0,1.144,0.541,2.931,1.618c1.719,1.146,2.577,1.938,2.577,2.375c0,0.843-0.489,1.264-1.465,1.264
				c-0.135,0-0.371-0.118-0.708-0.354c-1.448-1.043-2.611-1.734-3.486-2.072l0.152,13.141c0,2.156-0.607,3.233-1.819,3.233
				c-0.91,0-1.364-1.077-1.364-3.233c0.066-5.054,0.117-9.434,0.151-13.141c-0.843,1.111-1.718,2.105-2.628,2.98
				c-1.179,1.146-2.544,2.106-4.093,2.881c-0.371,0.137-0.624,0.203-0.758,0.203c-0.742,0-1.534-0.472-2.375-1.414
				c-0.675-0.676-1.012-1.297-1.012-1.871c0.067-0.336,0.455-0.521,1.162-0.555c1.112-0.135,1.938-0.285,2.477-0.455
				c1.313-0.336,2.578-0.978,3.791-1.922c1.213-0.977,2.239-2.088,3.083-3.334c0.101-0.169,0.234-0.304,0.403-0.404
				c0-0.74,0-1.467,0-2.174c0-0.336,0-0.674,0-1.011c-2.493,0-4.296,0.136-5.406,0.404c-0.676,0.271-1.097,0.403-1.265,0.403
				c-1.01-0.066-1.55-0.556-1.616-1.465c0.031-0.473,0.284-0.927,0.758-1.365c0.471-0.269,1.078-0.402,1.818-0.402h5.661
				c-0.034-1.785-0.085-3.672-0.151-5.661c0-0.103,0-0.202,0-0.304c-0.642,0.136-1.23,0.253-1.77,0.354
				c-1.854,0.338-3.101,0.506-3.74,0.506c-0.808,0-1.565-0.285-2.272-0.859c-0.474-0.504-0.708-1.026-0.708-1.565
				c0-0.337,0.253-0.521,0.758-0.557c3.807-0.065,6.923-0.354,9.349-0.859c2.458-0.336,4.549-0.774,6.268-1.313
				C30.885,186.019,31.154,186,31.39,186z M43.923,207.833c1.01,0,2.122,0.019,3.335,0.051c0.032-3.873,0.05-7.158,0.05-9.854
				c0-2.931-0.05-6.196-0.15-9.804c0-1.348,0.537-2.021,1.616-2.021c1.078,0,1.617,0.674,1.617,2.021
				c-0.169,3.605-0.252,6.873-0.252,9.804l0.151,10.007c0.101,0,0.202,0,0.303,0c1.954,0.135,3.639,0.202,5.054,0.202
				c1.146,0,2.493-0.135,4.043-0.403c0.27,0,0.404,0.319,0.404,0.959c0,1.08-0.455,2.225-1.364,3.437
				c-0.641,0.81-1.196,1.214-1.668,1.214c-0.64,0-1.397-0.253-2.273-0.759c-1.383-0.772-2.864-1.33-4.447-1.667l0.05,7.934
				c0,2.157-0.605,3.234-1.819,3.234c-0.942,0-1.414-1.077-1.414-3.234c0.031-2.998,0.065-5.793,0.101-8.389
				c-1.146-0.066-2.342-0.102-3.588-0.102c-2.156,0-4.245,0.119-6.268,0.354c-1.247,0.202-3.116,0.942-5.608,2.224
				c-1.247,0-1.87-0.455-1.87-1.365c0-0.639,0.253-1.161,0.758-1.565c0.639-0.739,1.482-1.112,2.526-1.112
				C37.892,208.22,41.463,207.833,43.923,207.833z M37.202,197.875c0.234,0,1.396,0.606,3.486,1.819
				c1.987,1.247,2.981,2.123,2.981,2.63c0,0.842-0.455,1.262-1.364,1.262c-0.202,0-0.506-0.116-0.91-0.354
				c-2.089-1.381-3.672-2.223-4.75-2.525c-0.943-0.336-1.415-0.725-1.415-1.164C35.231,198.433,35.888,197.875,37.202,197.875z
				 M38.465,189.842c0.168,0,1.313,0.59,3.437,1.768c2.022,1.247,3.032,2.141,3.032,2.68c0,0.775-0.489,1.162-1.465,1.162
				c-0.169,0-0.438-0.102-0.809-0.304c-2.057-1.416-3.606-2.274-4.649-2.577c-0.944-0.27-1.415-0.656-1.415-1.162
				C36.596,190.366,37.218,189.842,38.465,189.842z"/>
		</g>
		<g>
			<path fill="#39393A" d="M53.625,182.034c-0.581,0-1.672-0.193-2.448-1.486l-0.15-0.34c-0.247-0.822-0.366-1.822-0.366-3.061
				c0-9.023,0.136-16.281,0.404-21.596c-3.609,0-7.104,0.016-10.483,0.041c-0.197,1.703-0.486,3.289-0.862,4.734
				c0.815,0.495,2.129,1.344,4.338,2.844c4.663,3.379,5.61,4.937,5.61,6.244c0,1.68-1.145,2.764-2.915,2.764
				c-0.657,0-1.368-0.309-2.306-1l-0.084-0.066c-3.801-3.246-5.811-4.453-6.835-4.893c-0.058-0.02-0.113-0.039-0.17-0.059
				c-0.521,0.928-1.089,1.752-1.696,2.461c-2.076,2.775-4.09,4.162-6.092,4.162c-1.001,0-1.943-0.414-2.728-1.195
				c-1.063-1.063-1.602-2.185-1.602-3.336c0-0.063,0.002-0.123,0.005-0.184c-0.333,3.961-1.055,6.816-2.181,8.65
				c-1.748,3.181-3.615,4.757-5.675,4.757c-1.314,0-2.591-0.677-3.793-2.013l-0.068-0.082c-0.68-0.871-1.024-1.76-1.024-2.641
				c0-1.195,0.809-2.078,2.06-2.244c1.555-0.179,2.791-1.264,3.807-3.32c0.56-1.077,1.209-3.66,1.209-10
				c0-2.615-0.2-5.422-0.594-8.34l-0.014-0.201c0-1.861,1.204-3.065,3.066-3.065c1.014,0,1.717,0.271,2.198,0.608l11.021,0.043
				c0.025-0.79,0.038-1.605,0.038-2.436v-2.225c0-1.618,1.084-2.663,2.763-2.663c2.447,0,3.319,1.479,3.319,2.865l-0.01,0.175
				c-0.151,1.288-0.293,2.745-0.426,4.346l10.464,0.045c0.072,0,0.536-0.023,1.957-0.484l0.227-0.072h0.237
				c2.597,0,3.521,1.479,3.521,2.863l-0.031,0.304c-0.649,3.149-0.979,7.095-0.979,11.726c0,3.19,0.203,7.816,0.603,13.746
				l0.003,0.102C56.945,180.684,55.673,182.034,53.625,182.034z M53.666,174.067c-0.003,1.002-0.005,2.029-0.005,3.08
				c0,0.752,0.053,1.38,0.157,1.873c0.065-0.012,0.092-0.023,0.093-0.023c-0.02-0.013,0.029-0.137,0.034-0.438
				C53.837,176.967,53.745,175.47,53.666,174.067z M15.866,177.499c0.577,0.633,1.118,0.979,1.525,0.979
				c0.302,0,1.416-0.235,3.082-3.265c0.675-1.103,1.421-3.211,1.776-7.366c-0.253,2.075-0.652,3.627-1.203,4.687
				c-1.312,2.655-3.094,4.273-5.3,4.801C15.782,177.383,15.821,177.44,15.866,177.499z M28.325,168.602
				c0.109,0.258,0.327,0.553,0.638,0.863c0.32,0.318,0.521,0.318,0.607,0.318c0.552,0,1.771-0.395,3.753-3.037
				c0.774-0.91,1.432-1.967,2.013-3.219l0.785-1.691l-0.078-0.037c-0.992,2.281-2.169,3.837-3.567,4.738
				C31.355,167.458,29.96,168.15,28.325,168.602z M36.216,161.881l1.404,1.096c0.073,0.059,0.312,0.215,0.916,0.416l0.104,0.039
				c1.604,0.67,3.799,2.169,6.691,4.57c-0.646-0.584-1.597-1.362-2.995-2.377c-3.569-2.42-4.711-3.074-5.07-3.244L36.216,161.881z
				 M25.548,155.73c-0.03,2.883-0.06,5.08-0.087,6.588c0,2.07-0.067,3.938-0.203,5.614c0.12-1.122,0.87-1.932,2.021-2.156
				c1.368-0.347,2.494-0.886,3.349-1.604l0.174-0.127c0.929-0.574,2.29-2.131,3.494-6.27c0.158-0.669,0.306-1.396,0.44-2.158
				C31.545,155.646,28.482,155.683,25.548,155.73z M21.979,152.573c0.271,2.028,0.45,4.008,0.538,5.914
				c0.016-1.234,0.03-2.65,0.045-4.246l0.045-1.462l-0.137-0.183c-0.001,0.021-0.134-0.026-0.431-0.025
				C22.019,152.571,21.998,152.571,21.979,152.573z M53.213,153.023c0.519,0.329,0.742,0.772,0.837,1.136
				c0.073-0.465,0.152-0.916,0.237-1.354c-0.065-0.011-0.146-0.019-0.244-0.024C53.745,152.874,53.469,152.954,53.213,153.023z
				 M38.299,145.911v0.484c0.018-0.162,0.035-0.322,0.053-0.479C38.336,145.915,38.318,145.913,38.299,145.911z"/>
			<path fill="#39393A" d="M48.572,223.684c-1.329,0-2.914-0.821-2.914-4.734c0.025-2.461,0.054-4.775,0.081-6.955
				c-0.672-0.022-1.363-0.033-2.068-0.033c-2.085,0-4.136,0.115-6.093,0.344c-0.681,0.111-2.183,0.57-5.098,2.066l-0.322,0.166
				h-0.363c-2.485,0-3.37-1.479-3.37-2.865c0-0.797,0.24-1.514,0.702-2.11c-0.272-0.117-0.527-0.278-0.77-0.448
				c-0.406-0.293-0.771-0.544-1.098-0.759l0.123,10.578c0,4.291-2.321,4.752-3.319,4.752c-1.307,0-2.865-0.821-2.865-4.733
				c0.045-3.341,0.081-6.379,0.111-9.123c-0.016,0.016-0.032,0.029-0.048,0.045c-1.277,1.242-2.78,2.301-4.462,3.143l-0.156,0.066
				c-0.57,0.209-0.938,0.293-1.272,0.293c-1.186,0-2.361-0.645-3.495-1.916c-0.903-0.898-1.392-1.885-1.392-2.869l0.029-0.293
				c0.122-0.61,0.61-1.646,2.503-1.756c1.233-0.15,1.853-0.295,2.155-0.392c1.186-0.306,2.275-0.86,3.32-1.674
				c1.07-0.862,2.006-1.874,2.761-2.99c0.042-0.071,0.092-0.146,0.146-0.215v-1.015c-1.845,0.05-2.882,0.191-3.458,0.32
				c-0.989,0.389-1.381,0.467-1.713,0.467c-1.864-0.119-2.991-1.186-3.112-2.854l-0.009-0.104l0.007-0.106
				c0.06-0.86,0.475-1.655,1.234-2.36l0.277-0.203c0.699-0.398,1.561-0.602,2.562-0.602h4.128c-0.021-0.859-0.044-1.74-0.071-2.645
				c-0.014,0.002-0.025,0.006-0.038,0.008c-1.963,0.357-3.274,0.531-4.02,0.531c-1.16,0-2.243-0.402-3.219-1.195l-0.148-0.139
				c-0.738-0.787-1.113-1.66-1.113-2.592c0-0.947,0.666-1.949,2.153-2.053c3.771-0.068,6.821-0.348,9.147-0.832l0.103-0.018
				c2.362-0.322,4.389-0.746,6.021-1.26l0.291-0.06c0.362-0.039,0.684-0.06,0.967-0.06c1.33,0,2.258,0.929,2.258,2.258
				c0,1.132-0.524,2.017-1.439,2.429l-0.168,0.063c-1.652,0.519-3.214,0.982-4.658,1.389c0,0.004,0,0.007,0,0.011
				c-0.05,1.46-0.09,2.841-0.121,4.161l4.06,0.006c1.093,0.098,1.864,0.867,1.968,1.96l0.006,0.14c0,0.877-0.329,1.699-0.95,2.377
				l-0.086,0.088c-0.746,0.691-1.675,1.058-2.688,1.058c-0.237,0-0.742-0.017-2.383-0.151l0.026,1.649
				c0.505,0.269,1.244,0.696,2.373,1.378c2.454,1.635,3.303,2.581,3.303,3.659c0,0.185-0.014,0.362-0.042,0.532
				c0.076-0.006,0.152-0.01,0.229-0.01c4.755-0.783,8.303-1.164,10.846-1.164c0.583,0,1.198,0.006,1.848,0.018
				c0.024-3.215,0.038-5.988,0.038-8.32c0-0.644-0.002-1.304-0.007-1.982c-0.466,0.531-1.215,0.904-2.333,0.904
				c-0.44,0-0.911-0.148-1.527-0.486l-0.133-0.08c-2.381-1.641-3.606-2.195-4.216-2.372c-2.172-0.62-2.497-1.897-2.497-2.604
				c0-1.48,0.885-3.064,3.369-3.064c0.453,0,0.64,0,4.165,1.955c1.544,0.951,2.545,1.705,3.13,2.393
				c-0.025-1.418-0.06-2.895-0.103-4.424c0-2.639,1.609-3.563,3.116-3.563s3.117,0.924,3.117,3.521
				c-0.168,3.612-0.252,6.888-0.252,9.804l0.13,8.579c1.467,0.087,2.769,0.13,3.878,0.13c1.054,0,2.328-0.129,3.786-0.382
				l0.257-0.022c0.318,0,1.904,0.119,1.904,2.459c0,1.406-0.561,2.865-1.665,4.338c-0.629,0.796-1.583,1.813-2.868,1.813
				c-0.917,0-1.906-0.314-3.023-0.96c-0.691-0.387-1.424-0.717-2.185-0.985l0.038,5.943
				C51.892,223.223,49.57,223.684,48.572,223.684z M48.749,209.146l0.028,0.002l-0.019,1.435c-0.035,2.592-0.069,5.388-0.101,8.385
				c0,0.623,0.046,1.055,0.099,1.344c0.067-0.264,0.135-0.689,0.135-1.359l-0.123-12.328c-0.003,0.418-0.007,0.842-0.01,1.273
				L48.749,209.146z M24.293,211.269c-0.027,2.364-0.06,4.933-0.095,7.7c0,0.547,0.032,0.943,0.074,1.23
				c0.059-0.269,0.109-0.668,0.109-1.25L24.293,211.269z M50.607,209.54l0.046,0.01c1.72,0.365,3.356,0.979,4.867,1.826
				c0.717,0.414,1.167,0.531,1.417,0.56c0.096-0.065,0.302-0.238,0.617-0.638c0.465-0.619,0.779-1.213,0.933-1.764
				c-1.043,0.135-1.993,0.203-2.839,0.203C54.233,209.737,52.538,209.67,50.607,209.54z M31.442,211.516
				c0.01,0.001,0.02,0.002,0.028,0.003c0.855-0.433,1.638-0.8,2.351-1.104c-0.121,0.02-0.243,0.039-0.366,0.06l-0.245,0.021
				c-0.608,0-1.037,0.184-1.392,0.594l-0.197,0.189C31.52,211.357,31.467,211.424,31.442,211.516z M14.079,209.424
				c0.584,0.646,1.002,0.9,1.227,0.943c0.063-0.019,0.139-0.043,0.229-0.076c1.375-0.695,2.601-1.563,3.643-2.576
				c0.063-0.062,0.126-0.123,0.19-0.186c-1.09,0.705-2.217,1.207-3.372,1.502C15.563,209.17,14.92,209.303,14.079,209.424z
				 M16.258,197.95c-0.022,0.024-0.041,0.049-0.057,0.069c0.096-0.03,0.252-0.084,0.492-0.177
				C16.527,197.866,16.38,197.902,16.258,197.95z M24.198,189.685v0.965c0.034,1.021,0.064,2.024,0.091,3.009
				c0.025-0.992,0.058-2.013,0.094-3.061c-0.001-0.307-0.048-0.502-0.076-0.586L24.198,189.685z M48.714,187.706
				c-0.024,0.082-0.056,0.241-0.056,0.52c0.034,1.249,0.063,2.469,0.087,3.652c0.039-1.205,0.088-2.447,0.147-3.724
				c-0.001-0.229-0.032-0.372-0.057-0.448C48.803,187.706,48.749,187.704,48.714,187.706z M16.839,189.672
				c0.282,0.055,0.409,0.074,1.542-0.076C17.88,189.625,17.366,189.652,16.839,189.672z M42.306,205.086
				c-0.494,0-1.009-0.172-1.669-0.561c-2.496-1.646-3.763-2.197-4.396-2.377l-0.097-0.029c-1.6-0.57-2.412-1.438-2.412-2.576
				c0-1.531,0.912-3.168,3.471-3.168c0.456,0,0.756,0,4.239,2.022c2.766,1.733,3.729,2.754,3.729,3.927
				C45.17,204.002,44.046,205.086,42.306,205.086z"/>
		</g>
		<g>
			<path fill="#39393A" d="M22.041,151.071c0.774,0,1.313,0.202,1.617,0.607l13.038,0.05c0.067-1.246,0.102-2.56,0.102-3.94v-2.225
				c0-0.775,0.42-1.163,1.263-1.163c1.213,0,1.819,0.455,1.819,1.365c-0.202,1.718-0.388,3.724-0.556,6.015l12.077,0.051
				c0.472,0,1.28-0.187,2.426-0.558c1.347,0,2.021,0.455,2.021,1.364c-0.675,3.27-1.011,7.277-1.011,12.027
				c0,3.233,0.202,7.852,0.605,13.848c0,1.348-0.605,2.021-1.818,2.021c-0.473,0-0.859-0.254-1.162-0.759
				c-0.202-0.673-0.303-1.549-0.303-2.628c0-9.602,0.15-17.098,0.455-22.486c0-0.406-0.474-0.607-1.415-0.607
				c-4.145,0-8.137,0.02-11.978,0.051c-0.202,2.393-0.573,4.531-1.111,6.418c-0.067,0.169-0.135,0.337-0.201,0.506
				c0.707,0.338,2.476,1.465,5.306,3.385c3.301,2.394,4.953,4.063,4.953,5.004c0,0.844-0.473,1.264-1.415,1.264
				c-0.303,0-0.775-0.235-1.415-0.707c-3.234-2.762-5.66-4.479-7.277-5.155c-0.605-0.202-1.062-0.42-1.364-0.655
				c-0.641,1.381-1.364,2.543-2.173,3.485c-1.818,2.427-3.471,3.64-4.953,3.64c-0.605,0-1.161-0.254-1.667-0.759
				c-0.775-0.774-1.161-1.532-1.161-2.274c0-0.57,0.284-0.91,0.858-1.01c1.616-0.404,2.947-1.043,3.992-1.92
				c1.684-1.045,3.065-3.42,4.144-7.127c0.304-1.279,0.557-2.645,0.759-4.093c-4.38,0.034-8.524,0.084-12.433,0.151
				c-0.035,3.604-0.068,6.285-0.102,8.035c0,6.738-0.726,11.287-2.173,13.646c-1.483,2.694-2.949,4.042-4.396,4.042
				c-0.877,0-1.769-0.506-2.678-1.516c-0.473-0.606-0.708-1.18-0.708-1.719c0-0.438,0.253-0.691,0.758-0.759
				c2.054-0.235,3.706-1.616,4.953-4.144c0.91-1.752,1.364-5.307,1.364-10.664c0-2.694-0.202-5.541-0.606-8.54
				C20.475,151.592,20.997,151.071,22.041,151.071z"/>
			<path fill="#39393A" d="M31.39,186c0.506,0,0.758,0.252,0.758,0.758c0,0.539-0.186,0.895-0.556,1.062
				c-2.156,0.675-4.111,1.247-5.862,1.72c0.102,0.303,0.152,0.674,0.152,1.11c-0.069,1.989-0.119,3.876-0.152,5.661h5.458
				c0.37,0.033,0.572,0.234,0.607,0.605c0,0.504-0.187,0.959-0.557,1.363c-0.473,0.438-1.028,0.657-1.668,0.657
				c-0.337,0-1.11-0.052-2.323-0.151c-0.54-0.031-1.063-0.051-1.567-0.051c0,0.337,0,0.674,0,1.01l0.051,3.234
				c0.067,0,0.118,0,0.152,0c0.168,0,1.144,0.541,2.931,1.618c1.719,1.146,2.577,1.938,2.577,2.375c0,0.843-0.489,1.264-1.465,1.264
				c-0.135,0-0.371-0.118-0.708-0.354c-1.448-1.043-2.611-1.734-3.486-2.072l0.152,13.141c0,2.156-0.607,3.233-1.819,3.233
				c-0.91,0-1.364-1.077-1.364-3.233c0.066-5.054,0.117-9.434,0.151-13.141c-0.843,1.111-1.718,2.105-2.628,2.98
				c-1.179,1.146-2.544,2.106-4.093,2.881c-0.371,0.137-0.624,0.203-0.758,0.203c-0.742,0-1.534-0.472-2.375-1.414
				c-0.675-0.676-1.012-1.297-1.012-1.871c0.067-0.336,0.455-0.521,1.162-0.555c1.112-0.135,1.938-0.285,2.477-0.455
				c1.313-0.336,2.578-0.978,3.791-1.922c1.213-0.977,2.239-2.088,3.083-3.334c0.101-0.169,0.234-0.304,0.403-0.404
				c0-0.74,0-1.467,0-2.174c0-0.336,0-0.674,0-1.011c-2.493,0-4.296,0.136-5.406,0.404c-0.676,0.271-1.097,0.403-1.265,0.403
				c-1.01-0.066-1.55-0.556-1.616-1.465c0.031-0.473,0.284-0.927,0.758-1.365c0.471-0.269,1.078-0.402,1.818-0.402h5.661
				c-0.034-1.785-0.085-3.672-0.151-5.661c0-0.103,0-0.202,0-0.304c-0.642,0.136-1.23,0.253-1.77,0.354
				c-1.854,0.338-3.101,0.506-3.74,0.506c-0.808,0-1.565-0.285-2.272-0.859c-0.474-0.504-0.708-1.026-0.708-1.565
				c0-0.337,0.253-0.521,0.758-0.557c3.807-0.065,6.923-0.354,9.349-0.859c2.458-0.336,4.549-0.774,6.268-1.313
				C30.885,186.019,31.154,186,31.39,186z M43.923,207.833c1.01,0,2.122,0.019,3.335,0.051c0.032-3.873,0.05-7.158,0.05-9.854
				c0-2.931-0.05-6.196-0.15-9.804c0-1.348,0.537-2.021,1.616-2.021c1.078,0,1.617,0.674,1.617,2.021
				c-0.169,3.605-0.252,6.873-0.252,9.804l0.151,10.007c0.101,0,0.202,0,0.303,0c1.954,0.135,3.639,0.202,5.054,0.202
				c1.146,0,2.493-0.135,4.043-0.403c0.27,0,0.404,0.319,0.404,0.959c0,1.08-0.455,2.225-1.364,3.437
				c-0.641,0.81-1.196,1.214-1.668,1.214c-0.64,0-1.397-0.253-2.273-0.759c-1.383-0.772-2.864-1.33-4.447-1.667l0.05,7.934
				c0,2.157-0.605,3.234-1.819,3.234c-0.942,0-1.414-1.077-1.414-3.234c0.031-2.998,0.065-5.793,0.101-8.389
				c-1.146-0.066-2.342-0.102-3.588-0.102c-2.156,0-4.245,0.119-6.268,0.354c-1.247,0.202-3.116,0.942-5.608,2.224
				c-1.247,0-1.87-0.455-1.87-1.365c0-0.639,0.253-1.161,0.758-1.565c0.639-0.739,1.482-1.112,2.526-1.112
				C37.892,208.22,41.463,207.833,43.923,207.833z M37.202,197.875c0.234,0,1.396,0.606,3.486,1.819
				c1.987,1.247,2.981,2.123,2.981,2.63c0,0.842-0.455,1.262-1.364,1.262c-0.202,0-0.506-0.116-0.91-0.354
				c-2.089-1.381-3.672-2.223-4.75-2.525c-0.943-0.336-1.415-0.725-1.415-1.164C35.231,198.433,35.888,197.875,37.202,197.875z
				 M38.465,189.842c0.168,0,1.313,0.59,3.437,1.768c2.022,1.247,3.032,2.141,3.032,2.68c0,0.775-0.489,1.162-1.465,1.162
				c-0.169,0-0.438-0.102-0.809-0.304c-2.057-1.416-3.606-2.274-4.649-2.577c-0.944-0.27-1.415-0.656-1.415-1.162
				C36.596,190.366,37.218,189.842,38.465,189.842z"/>
		</g>
	</g>
</g>
</svg>
